<?xml version="1.0" encoding="utf-8"?>
<!-- Generator: Adobe Illustrator 19.1.0, SVG Export Plug-In . SVG Version: 6.00 Build 0)  -->
<!DOCTYPE svg PUBLIC "-//W3C//DTD SVG 1.1//EN" "http://www.w3.org/Graphics/SVG/1.1/DTD/svg11.dtd">
<svg version="1.1" id="Layer_1" xmlns="http://www.w3.org/2000/svg" xmlns:xlink="http://www.w3.org/1999/xlink" x="0px" y="0px"
	 viewBox="0 0 144 72" enable-background="new 0 0 144 72" xml:space="preserve">
<g>
	<line fill="#FFFFFF" x1="144" y1="0" x2="0" y2="0"/>
	<path fill="#FFFFFF" d="M144,0c-2.8,3.1-5.7,6.2-8.5,9.2l-8.6,9.1l-8.7,9c-2.9,3-5.9,5.9-8.8,8.9c-2.9,3-5.9,5.9-8.8,8.9l-8.9,8.8
		c-3,2.9-6,5.8-8.9,8.7l-9,8.7l0,0c-1,0.9-2.5,0.9-3.4,0l0,0l-9-8.7c-3-2.9-6-5.8-8.9-8.7L43.5,45c-3-2.9-5.9-5.9-8.8-8.9
		c-2.9-3-5.9-5.9-8.8-8.9l-8.7-9L8.5,9.2C5.7,6.1,2.8,3.1,0,0c3.2,2.7,6.3,5.4,9.5,8.2l9.4,8.3l9.3,8.4c3.1,2.8,6.1,5.6,9.2,8.5
		c3.1,2.8,6.1,5.6,9.2,8.5l9.1,8.6c3,2.9,6,5.8,9.1,8.6l5.7,5.4c1,0.9,2.5,0.9,3.4,0l5.5-5.4c3-2.9,6-5.8,9.1-8.6l9.1-8.6
		c3-2.9,6.1-5.7,9.2-8.5c3.1-2.8,6.1-5.7,9.2-8.5l9.3-8.4l9.4-8.3C137.6,5.4,140.8,2.7,144,0z"/>
</g>
</svg>
