<?xml version="1.0" encoding="utf-8"?>
<!-- Generator: Adobe Illustrator 19.1.0, SVG Export Plug-In . SVG Version: 6.00 Build 0)  -->
<!DOCTYPE svg PUBLIC "-//W3C//DTD SVG 1.1//EN" "http://www.w3.org/Graphics/SVG/1.1/DTD/svg11.dtd">
<svg version="1.1" id="Layer_1" xmlns="http://www.w3.org/2000/svg" xmlns:xlink="http://www.w3.org/1999/xlink" x="0px" y="0px"
	 viewBox="0 0 305.5 184.9" enable-background="new 0 0 305.5 184.9" xml:space="preserve">
<path fill="#FFFFFF" d="M150.2,0c-33.9,0-61.5,31.7-61.5,70.6s27.6,70.6,61.5,70.6s61.5-31.7,61.5-70.6S184.1,0,150.2,0z
	 M145.6,131.8c-26.7-2.7-47.7-29.1-47.7-61.2s21-58.5,47.7-61.2V131.8z M154.7,9.4c25.4,2.6,45.7,26.7,47.6,56.6h-47.6V9.4z
	 M154.7,131.8V75.2h47.6C200.5,105.1,180.2,129.2,154.7,131.8z"/>
<g>
	<path fill="#FFFFFF" d="M8.1,167.5v16.9H5.4v-16.9H0v-2.3h13.7l-0.3,2.3H8.1z"/>
	<path fill="#FFFFFF" d="M19.9,175.4v9h-2.6v-19.2h2.6v8H28v-8h2.6v19.2H28v-9H19.9z"/>
	<path fill="#FFFFFF" d="M39.4,167.4v6.3h6.5v2.1h-6.5v6.6h8v2.1H36.8v-19.2h10.4l-0.3,2.1H39.4z"/>
	<path fill="#FFFFFF" d="M74.5,174.7c0,7.8-4.7,9.7-9.6,9.7h-5.8v-19.3h5.4C69.7,165.2,74.5,166.7,74.5,174.7z M63.7,181.1h1.5
		c2.8,0,4.6-1.3,4.6-6.4c0-5.2-2-6.2-4.6-6.2h-1.4V181.1z"/>
	<path fill="#FFFFFF" d="M82.4,168.4v4.6h5.9v3.2h-5.9v4.9h7.3v3.3H77.8v-19.3h11.8l-0.5,3.3H82.4z"/>
	<path fill="#FFFFFF" d="M108.4,174.7c0,7.8-4.7,9.7-9.6,9.7H93v-19.3h5.4C103.5,165.2,108.4,166.7,108.4,174.7z M97.5,181.1H99
		c2.8,0,4.6-1.3,4.6-6.4c0-5.2-2-6.2-4.6-6.2h-1.4V181.1z"/>
	<path fill="#FFFFFF" d="M118.9,184.9c-5,0-7.5-2.8-7.5-6.9v-12.9h4.6v12.7c0,2.5,0.9,3.7,2.9,3.7c2.1,0,3-1.2,3-3.7v-12.7h4.6V178
		C126.4,181.9,123.9,184.9,118.9,184.9z"/>
	<path fill="#FFFFFF" d="M144,166.8l-2.2,2.6c-1-0.9-2.1-1.4-3.4-1.4c-2.4,0-4.2,2-4.2,6.7c0,4.6,1.7,6.6,4.3,6.6
		c1.5,0,2.6-0.8,3.8-1.6l2.1,2.7c-1.3,1.3-3.4,2.5-6,2.5c-5.3,0-8.8-3.6-8.8-10.1c0-6.5,3.7-10.1,8.7-10.1
		C140.7,164.7,142.4,165.5,144,166.8z"/>
	<path fill="#FFFFFF" d="M154.8,168.7v15.8h-4.6v-15.8h-5v-3.5H160l-0.4,3.5H154.8z"/>
	<path fill="#FFFFFF" d="M162.4,184.4v-19.3h4.6v19.3H162.4z"/>
	<path fill="#FFFFFF" d="M187.6,174.8c0,6.3-3.3,10.1-8.7,10.1c-5.4,0-8.7-3.7-8.7-10.1c0-6.3,3.3-10.1,8.7-10.1
		C184.4,164.7,187.6,168.4,187.6,174.8z M175,174.8c0,4.9,1.4,6.8,3.9,6.8c2.6,0,3.9-1.9,3.9-6.8c0-4.9-1.3-6.8-3.9-6.8
		C176.4,168,175,169.9,175,174.8z"/>
	<path fill="#FFFFFF" d="M200,184.4l-5.6-14.9c0.2,1.8,0.6,4.3,0.6,7.9v7.1h-4.1v-19.3h5.7l5.7,15c-0.2-1.6-0.6-4.1-0.6-7.2v-7.8
		h4.1v19.3H200z"/>
	<path fill="#FFFFFF" d="M231.6,167.1l-1.6,1.6c-1.3-1.1-2.5-1.6-4.2-1.6c-2.8,0-5.5,2.1-5.5,7.7c0,5.5,1.9,7.8,5.2,7.8
		c1.3,0,2.6-0.2,3.6-0.9v-5.8h-3.4l-0.3-2.1h6.3v9.3c-1.8,1-3.8,1.7-6.5,1.7c-4.8,0-7.8-3.3-7.8-9.9c0-6.5,3.9-9.9,8.3-9.9
		C228.4,164.9,230,165.7,231.6,167.1z"/>
	<path fill="#FFFFFF" d="M239.6,176.3v8.1h-2.6v-19.2h5c4.8,0,7.3,1.8,7.3,5.4c0,2.7-1.4,4.3-4.1,5.1l5.2,8.6h-3.1l-4.6-8.1H239.6z
		 M246.4,170.7c0-2.4-1.4-3.4-4.5-3.4h-2.4v7h2.7C244.9,174.3,246.4,173.3,246.4,170.7z"/>
	<path fill="#FFFFFF" d="M269.2,174.9c0,6.3-3.3,9.9-8.1,9.9c-4.8,0-8.1-3.4-8.1-9.9c0-6.3,3.3-10,8.1-10
		C265.9,164.9,269.2,168.4,269.2,174.9z M255.8,174.9c0,5.5,2.2,7.7,5.3,7.7c3.2,0,5.3-2.2,5.3-7.7c0-5.5-2-7.8-5.3-7.8
		C257.9,167.1,255.8,169.4,255.8,174.9z"/>
	<path fill="#FFFFFF" d="M280.5,184.8c-4.4,0-6.7-2.7-6.7-6.5v-13h2.6v12.8c0,3,1.3,4.4,4,4.4c2.8,0,4.1-1.5,4.1-4.4v-12.8h2.7v13
		C287.2,182.1,284.8,184.8,280.5,184.8z"/>
	<path fill="#FFFFFF" d="M305.5,171.2c0,4.4-3.2,6.2-7.4,6.2h-2.4v7h-2.6v-19.2h5C302.7,165.3,305.5,167.2,305.5,171.2z
		 M302.7,171.2c0-2.9-1.8-3.9-4.7-3.9h-2.4v8h2.3C300.8,175.3,302.7,174.5,302.7,171.2z"/>
</g>
</svg>
